<svg width="51" height="51" viewBox="0 0 51 51" fill="none" xmlns="http://www.w3.org/2000/svg">
<path d="M46.6459 25.75C46.6459 37 36.9584 46.7917 25.5 46.7917C14.0417 46.7917 5.08337 37 5.08337 25.75C5.08337 14.5 14.3542 5.33337 25.9167 5.33337C37.4792 5.33337 46.6459 14.5 46.6459 25.75Z" fill="#FEBF10"/>
<path d="M35.2916 6.99996L38.1041 9.39579C39.875 9.70829 41.75 9.81246 41.75 10.2291C41.75 11.4791 34.3541 11.7916 25.6041 11.7916C16.8541 11.7916 9.66663 12.1041 9.66663 9.49996C9.66663 8.87496 11.9583 8.97913 15.1875 8.56246L18.1041 6.47913C10.3958 6.99996 4.97913 8.45829 4.97913 10.125C4.97913 12.3125 14.3541 14.1875 25.8125 14.1875C37.375 14.1875 46.6458 12.4166 46.6458 10.125C46.6458 8.66663 41.4375 7.62496 35.2916 6.99996Z" fill="#9FDADF"/>
<path d="M25.6042 38.6666C25.3958 38.6666 25.1875 38.6666 24.9792 38.6666C22.6875 38.3541 21.8542 36.0625 21.2292 34.3958L21.125 34.1875C21.0208 33.875 21.125 33.6666 21.4375 33.5625C21.75 33.4583 21.9583 33.5625 22.0625 33.875L22.1667 34.0833C22.7917 35.6458 23.4167 37.4166 25.0833 37.7291C25.9167 37.8333 26.8542 37.625 27.375 37.2083C28 36.6875 28.3125 35.9583 28.5208 35.0208C28.625 34.6041 28.625 34.2916 28.625 33.875C28.625 33.5625 28.8333 33.3541 29.1458 33.3541C29.3542 33.3541 29.6667 33.5625 29.6667 33.875C29.6667 34.2916 29.6667 34.8125 29.5625 35.2291C29.3542 36.4791 28.8333 37.4166 28 38.0416C27.4792 38.3541 26.5417 38.6666 25.6042 38.6666Z" fill="#010101"/>
<path d="M44.2499 15.5416C43.7291 14.8125 43.3124 14.0833 42.7916 13.3541C43.2083 13.25 43.5208 13.1458 43.9374 12.9375C44.8749 12.5208 46.1249 12.1041 46.7499 11.1666C47.0624 10.6458 47.1666 10.0208 46.9583 9.49996C46.8541 9.18746 46.5416 8.97913 46.3333 8.77079C44.4583 7.10413 41.9583 6.89579 39.7708 6.79163C37.9999 6.79163 36.3333 6.68746 35.0833 6.58329C34.9791 6.58329 34.8749 6.58329 34.8749 6.68746C34.4583 6.47913 34.0416 6.27079 33.6249 6.16663C32.3749 5.74996 31.0208 5.43746 29.2499 5.12496C28.5208 5.02079 28.1041 4.91663 27.3749 4.91663C26.8541 4.91663 26.0208 4.91663 25.2916 4.91663H25.1874C25.0833 4.91663 24.9791 4.91663 24.8749 4.91663C24.7708 4.91663 24.6666 4.91663 24.5624 4.91663C23.9374 4.91663 23.3124 4.91663 22.8958 5.02079L22.6874 5.12496C21.5416 5.43746 20.4999 5.64579 19.3541 5.95829C17.5833 6.06246 15.3958 6.16663 14.7708 6.27079L11.1249 6.68746C10.8124 6.68746 10.4999 6.79163 10.2916 6.79163C8.72911 6.89579 7.06244 7.10413 5.70827 7.83329C4.87494 8.24996 4.14577 9.08329 4.24994 10.125C4.35411 11.0625 5.18744 11.5833 5.70827 12C6.64577 12.5208 7.58328 13.0416 8.72911 13.3541C7.99994 14.2916 7.37494 15.2291 6.85411 16.2708C3.83327 22 3.62494 29.0833 6.33327 35.0208C9.04161 40.8541 14.5624 45.4375 20.8124 46.8958C22.3749 47.3125 24.0416 47.4166 25.7083 47.4166C28.4166 47.4166 31.2291 46.8958 33.7291 45.8541C37.6874 44.1875 41.2291 41.1666 43.9374 37.2083C46.4374 33.5625 47.6874 29.8125 47.6874 26.1666C47.6874 22.8333 46.4374 19.1875 44.2499 15.5416ZM22.8958 6.06246L23.1041 5.95829C23.4166 5.85413 23.9374 5.85413 24.5624 5.85413C24.7708 5.85413 24.8749 5.85413 25.1874 5.85413C25.4999 5.85413 25.7083 5.85413 26.0208 5.85413H26.4374C26.4374 5.85413 26.4374 5.85413 26.5416 5.85413C26.8541 5.85413 27.1666 5.85413 27.2708 5.85413C27.7916 5.95829 28.2083 5.95829 28.9374 6.06246C30.6041 6.27079 31.8541 6.58329 33.1041 6.99996C35.0833 7.72913 37.0624 8.87496 38.8333 10.5416C37.5833 10.75 36.3333 10.75 35.1874 10.8541C30.8124 11.0625 26.5416 11.0625 22.2708 11.0625H13.8333C13.3124 11.0625 12.8958 11.0625 12.4791 10.9583C13.8333 9.81246 15.2916 8.77079 16.9583 7.93746C18.7291 6.99996 20.8124 6.58329 22.8958 6.06246ZM11.1249 10.6458C10.7083 10.5416 10.3958 10.3333 10.1874 10.125C10.0833 10.0208 10.0833 9.91663 10.0833 9.81246C10.0833 9.60413 10.6041 9.39579 10.9166 9.29163C11.3333 9.18746 11.7499 9.18746 12.1666 9.18746H12.3749C12.5833 9.18746 12.7916 9.18746 12.8958 9.18746C12.2708 9.70829 11.7499 10.125 11.1249 10.6458ZM5.29161 10.0208C5.29161 9.49996 5.70828 8.97913 6.12494 8.77079C7.37494 8.14579 8.93744 7.93746 10.3958 7.83329C10.7083 7.83329 11.0208 7.72913 11.3333 7.72913L14.9791 7.31246C15.1874 7.31246 15.7083 7.20829 16.3333 7.20829C15.6041 7.62496 14.8749 8.04163 14.1458 8.45829C13.5208 8.24996 12.9999 8.24996 12.4791 8.24996H12.2708C11.7499 8.24996 11.3333 8.24996 10.8124 8.35413C9.66661 8.56246 9.14577 8.97913 9.04161 9.70829C9.04161 10.125 9.14578 10.5416 9.45828 10.8541C9.77078 11.2708 10.3958 11.4791 11.0208 11.6875C11.9583 12 12.8958 12 13.7291 12H22.2708C23.6249 12 24.8749 12 26.2291 12C29.1458 12 32.1666 12 35.0833 11.7916C37.0624 11.6875 39.2499 11.5833 41.2291 11.0625C41.3333 11.0625 41.6458 10.9583 41.8541 10.75C42.1666 10.5416 42.2708 10.125 42.1666 9.81246C42.0624 9.49996 41.8541 9.39579 41.7499 9.29163C40.3958 8.35413 38.6249 8.14579 37.5833 8.14579C37.2708 7.93746 36.9583 7.72913 36.7499 7.52079C37.6874 7.52079 38.6249 7.62496 39.6666 7.62496C41.7499 7.62496 43.9374 7.83329 45.6041 9.29163C45.7083 9.39579 45.8124 9.49996 45.9166 9.70829C46.0208 9.91663 45.9166 10.2291 45.8124 10.4375C45.3958 11.0625 44.3541 11.4791 43.5208 11.8958C42.4791 12.3125 41.4374 12.625 40.4999 12.8333C38.8333 13.25 37.0624 13.4583 34.9791 13.5625C32.6874 13.6666 30.2916 13.6666 27.9999 13.5625C26.9583 13.5625 25.9166 13.5625 24.7708 13.5625C21.4374 13.5625 17.6874 13.4583 13.9374 13.25C10.7083 13.0416 8.31244 12.3125 6.33327 11.1666C5.70827 10.75 5.39577 10.3333 5.29161 10.0208ZM39.1458 9.60413C39.7708 9.70829 40.3958 9.91663 41.0208 10.2291C40.7083 10.3333 40.3958 10.3333 40.0833 10.4375C39.7708 10.125 39.4583 9.81246 39.1458 9.60413ZM42.9999 36.6875C40.3958 40.5416 37.0624 43.3541 33.2083 44.9166C29.3541 46.4791 25.0833 46.8958 20.9166 45.8541C15.0833 44.5 9.77078 40.125 7.27078 34.6041C4.77078 28.9791 4.87494 22.2083 7.79161 16.7916C8.31244 15.75 9.04161 14.7083 9.87494 13.6666C11.0208 13.9791 12.3749 14.1875 13.8333 14.2916C17.6874 14.6041 21.4374 14.6041 24.7708 14.6041C25.8124 14.6041 26.8541 14.6041 27.8958 14.6041C29.1458 14.6041 30.2916 14.6041 31.5416 14.6041C32.6874 14.6041 33.8333 14.6041 34.9791 14.5C37.0624 14.3958 38.9374 14.1875 40.6041 13.7708C40.9166 13.6666 41.2291 13.6666 41.5416 13.5625C42.1666 14.2916 42.6874 15.125 43.2083 15.9583C45.3958 19.5 46.4374 22.8333 46.5416 26.0625C46.6458 30.5416 44.6666 34.2916 42.9999 36.6875Z" fill="#010101"/>
<path d="M18.3125 24.9167C18 24.9167 17.6875 24.7083 17.5834 24.3958C17.5834 24.1875 17.5834 24.0833 17.5834 23.875C17.5834 23.3542 17.8959 23.25 18 23.1458C18.3125 23.0417 18.5209 23.1458 18.7292 23.3542C19.0417 23.6667 19.0417 24.1875 18.9375 24.3958C18.9375 24.7083 18.625 24.9167 18.3125 24.9167Z" fill="#010101"/>
<path d="M32.6875 24.9167C32.375 24.9167 32.0625 24.7083 31.9583 24.3958C31.8541 24.0833 31.8541 23.5625 32.1666 23.3542C32.375 23.1458 32.6875 23.0417 32.8958 23.1458C33 23.1458 33.3125 23.3542 33.3125 23.875C33.3125 23.9792 33.3125 24.1875 33.3125 24.3958C33.2083 24.7083 33 24.9167 32.6875 24.9167Z" fill="#010101"/>
</svg>
