<svg width="51" height="51" viewBox="0 0 51 51" fill="none" xmlns="http://www.w3.org/2000/svg">
<path d="M26.666 17.4135C26.5995 16.878 26.5565 16.3405 26.538 15.8015C26.7215 14.883 26.5825 14.747 26.1205 15.3925C25.1325 15.52 24.1445 15.6475 23.1565 15.775C23.1455 15.7695 23.296 17.2075 23.2945 17.766C23.292 18.752 23.2065 19.729 23.093 20.708C22.785 23.3685 26.4145 23.6789 27.6505 21.9424C30.1995 18.3614 33.088 9.83445 26.5685 8.49545C24.1165 7.99195 21.9585 9.81195 21.2225 12.0439C20.2585 14.9664 21.058 18.3334 21.8375 21.1954C23.3275 20.5674 24.8175 19.939 26.308 19.311C25.6395 18.0445 24.823 16.676 24.6315 15.233C24.5825 14.866 24.6535 11.8035 25.7545 12.229C26.526 12.527 26.0625 15.078 25.943 15.6475C25.642 17.08 25.059 18.4559 24.504 19.8034C23.357 22.5879 27.464 23.6845 28.9745 21.688C32.5635 16.943 34.09 6.31795 25.5525 6.10795C15.7725 5.86695 19.2185 17.858 21.784 23.024C23.184 25.8435 27.405 23.3685 26.0075 20.555C25.2165 18.9625 21.567 10.7399 25.537 11.0074C29.07 11.2459 25.7645 17.879 24.7505 19.219C26.2405 19.847 27.7305 20.4755 29.221 21.1035C30.4355 18.1555 31.521 15.0029 30.7705 11.788C30.125 9.02295 27.946 6.97595 25.0035 7.42645C22.428 7.82095 20.565 9.87345 19.934 12.345C19.082 15.68 20.5625 18.8944 22.085 21.7794C23.3915 24.2554 27.277 22.5435 26.5555 19.895C26.2705 18.8495 25.97 17.7915 25.817 16.7165C25.7355 16.1415 25.68 15.5265 25.706 14.9445C25.7185 14.6665 26.103 12.4449 25.863 13.6464C25.431 15.8084 24.716 17.6644 23.428 19.4734C24.947 19.8849 26.4665 20.2965 27.9855 20.708C28.313 17.8805 28.7635 13.0805 25.626 11.5515C24.5965 11.05 23.5165 11.1579 22.662 11.9339C21.2085 13.2534 21.5965 15.6635 21.775 17.4139C22.0905 20.515 26.9855 20.5475 26.666 17.4135Z" fill="#F2B71F"/>
<path d="M23.029 20.2985C20.2505 18.3035 17.0475 15.253 13.3185 16.108C10.2895 16.802 7.48699 20.259 9.20799 23.363C10.8325 26.293 15.773 26.8465 18.3415 24.98C19.4715 24.1585 20.221 22.735 19.7935 21.3165C19.293 19.657 17.561 19.0205 16.014 18.777C13.0995 18.3185 8.54599 19.5955 9.32699 23.4185C10.084 27.1235 14.6365 26.214 16.4515 24.0215C18.586 21.443 17.9095 17.1275 14.553 15.9545C11.4515 14.871 8.28949 17.0395 7.39599 20.025C6.41949 23.288 7.48949 27.818 11.108 28.921C13.089 29.525 15.162 28.762 17.061 28.2245C19.5005 27.5345 21.9405 26.8445 24.38 26.154C27.4605 25.2825 26.132 20.9085 23.0795 21.437C20.178 21.94 17.2765 22.4425 14.375 22.9455C11.9335 23.3685 12.1575 27.0905 14.375 27.6625C18.623 28.758 23.0495 27.0095 26.8255 25.1285C28.977 24.0565 27.975 20.432 25.591 20.571C23.251 20.707 20.707 21.153 18.377 20.8925C18.9535 21.1315 19.53 21.37 20.1065 21.609C18.8735 20.517 18.273 18.9065 16.862 17.8545C15.3745 16.746 13.6885 16.195 11.8355 16.1955C12.5395 17.422 13.2435 18.649 13.9475 19.8755C14.664 18.7475 17.5105 21.943 17.944 22.328C19.495 23.705 21.2015 24.8535 23.0555 25.78C25.8635 27.1835 28.3435 22.9655 25.5245 21.5565C23.924 20.7565 22.455 19.8255 21.126 18.6225C19.9205 17.5315 18.818 16.3175 17.351 15.5665C14.625 14.1705 11.3965 14.7735 9.72399 17.4065C8.71799 18.9905 10.034 21.087 11.836 21.0865C14.753 21.086 14.957 23.894 16.896 25.2585C17.9885 26.027 19.351 25.8255 20.616 25.752C22.2745 25.6555 23.9335 25.559 25.592 25.4625C25.1805 23.9435 24.769 22.424 24.3575 20.905C21.8625 22.148 18.5145 23.678 15.6765 22.946C15.6765 24.5185 15.6765 26.0905 15.6765 27.663C18.578 27.16 21.4795 26.6575 24.381 26.1545C23.9475 24.582 23.514 23.01 23.0805 21.4375C21.454 21.8975 19.8275 22.3575 18.201 22.8175C16.821 23.208 14.3105 24.4465 12.92 24.1855C11.6445 23.9465 11.744 22.0205 12.2995 21.0235C12.382 20.77 12.5545 20.616 12.8165 20.5605C12.3215 21.161 12.4605 21.756 13.233 22.3455C13.3315 23.454 13.808 23.8525 14.663 23.542C15.023 23.5265 15.371 23.5775 15.706 23.695C15.467 23.1185 15.2285 22.542 14.9895 21.9655C15.5915 21.0685 15.415 20.7975 14.4595 21.153C13.421 20.847 13.246 20.8185 13.9355 21.0675C14.873 20.8735 15.347 20.972 16.237 21.468C17.76 22.316 19.1475 23.5075 20.5605 24.5215C23.1215 26.361 25.566 22.12 23.029 20.2985Z" fill="#F2B71F"/>
<path d="M28.8925 26.6844C31.5045 26.3304 33.6865 22.7799 35.6345 21.2319C36.118 20.8479 39.7175 18.9004 38.5145 20.4844C37.7065 21.5479 35.122 21.8444 33.9625 22.1619C34.883 23.3594 35.804 24.5569 36.7245 25.7549C37.6815 24.4214 39.0145 23.4614 40.3365 22.5209C39.5135 21.1129 38.6905 19.7049 37.8675 18.2974C35.9795 19.6579 33.973 20.7039 31.713 21.2894C29.833 21.7764 27.8375 21.5799 26.3595 22.9979C24.9965 24.3059 25.7195 26.5624 27.4385 27.0859C30.2625 27.9459 33.1625 28.4994 36.109 28.7104C38.7865 28.9024 41.472 28.8154 43.259 26.5414C46.4575 22.4709 44.304 15.3719 38.496 15.8429C35.38 16.0954 35.353 20.9894 38.496 20.7344C39.823 20.6269 40.2835 21.8899 39.695 22.9934C39.0425 24.2174 37.7855 23.9189 36.517 23.8429C33.8595 23.6839 31.281 23.1424 28.7385 22.3684C29.098 23.7309 29.458 25.0934 29.8175 26.4564C29.4615 26.7979 29.7225 26.5404 30.149 26.5299C30.604 26.5189 31.0955 26.4064 31.5425 26.3259C32.654 26.1264 33.7455 25.8309 34.806 25.4429C36.788 24.7179 38.6235 23.7539 40.335 22.5209C42.8615 20.7004 40.4435 16.4639 37.866 18.2974C35.814 19.7574 33.978 21.2264 32.499 23.2864C31.2105 25.0814 33.3355 27.4064 35.261 26.8794C37.889 26.1599 40.898 25.5644 42.6015 23.2219C44.1565 21.0834 44.192 18.1839 42.1995 16.3094C40.0375 14.2759 36.8835 14.7244 34.506 16.0809C33.2145 16.8179 32.0435 17.8319 30.9615 18.8434C30.288 19.4729 28.5195 21.8424 27.5905 21.9679C24.487 22.3884 25.8095 27.1024 28.8925 26.6844Z" fill="#F2B71F"/>
<path d="M20.7595 26.718C19.1135 28.114 17.4675 29.51 15.821 30.9065C17.1015 31.8945 18.382 32.8825 19.6625 33.8705C20.42 32.831 21.1775 31.7915 21.935 30.7525C23.418 28.7175 20.5705 26.206 18.5885 27.406C15.503 29.2745 12.2025 31.764 12.087 35.7355C11.993 38.9685 14.5785 42.0465 17.968 41.845C20.975 41.6665 23.56 38.2495 22.9835 35.277C22.1555 31.0065 17.089 33.124 15.02 34.9115C13.475 36.2465 14.6665 39.2725 16.7495 39.0865C21.3805 38.673 24.1625 32.8275 25.542 28.967C23.9405 28.7505 22.339 28.5335 20.738 28.317C20.706 30.531 20.308 32.656 19.4095 34.69C18.1525 37.536 21.837 39.815 23.633 37.159C25.552 34.3215 25.337 30.895 26.59 27.8115C24.9885 27.595 23.387 27.378 21.786 27.1615C21.5285 29.7405 21.969 35.772 19.2405 37.206C18.5695 37.559 18.2405 37.505 17.6495 37.1005C16.3705 36.2245 16.853 35.088 17.5245 34.0945C18.5395 32.593 20.1285 31.334 21.5295 30.216C23.9895 28.253 20.5085 24.812 18.0705 26.757C15.575 28.748 11.6475 32.0345 11.8185 35.6025C11.965 38.665 14.481 41.8185 17.5515 42.2755C25.817 43.506 26.139 32.558 26.6775 27.1605C26.975 24.179 22.817 24.188 21.8735 26.5105C20.7975 29.1585 21.036 32.285 19.4095 34.69C20.8175 35.513 22.2255 36.336 23.633 37.159C24.8925 34.307 25.5845 31.4435 25.629 28.3165C25.6705 25.438 21.722 25.156 20.825 27.6665C20.3235 29.07 19.6725 30.3875 18.8415 31.627C18.449 32.212 18.028 32.771 17.5565 33.2955C17.353 33.5215 16.489 34.218 16.7495 34.195C17.326 35.5865 17.9025 36.9785 18.479 38.37C18.972 37.944 19.4835 37.5775 20.1365 37.6545C19.56 37.4155 18.9835 37.177 18.407 36.938C18.1885 36.1575 17.985 36.1245 17.7975 36.839C17.686 36.858 17.575 36.8765 17.4635 36.8955C16.7555 36.1855 16.935 35.455 17.4035 34.6295C18.1865 33.25 19.749 32.422 21.058 31.629C19.9425 30.5135 18.827 29.398 17.7115 28.2825C16.954 29.322 16.1965 30.3615 15.439 31.4005C13.702 33.784 17.3045 36.04 19.2805 34.3645C20.9265 32.9685 22.5725 31.5725 24.219 30.176C26.6225 28.138 23.148 24.6925 20.7595 26.718Z" fill="#F2B71F"/>
<path d="M25.547 27.4695C24.818 30.8785 26.0465 34.9075 26.991 38.177C27.8725 41.228 32.319 39.9415 31.708 36.8765C31.2415 34.538 30.4655 32.345 29.454 30.1895C28.4425 28.0335 24.679 29.046 24.8965 31.424C25.316 36.018 27.4255 43.0325 33.522 41.322C35.603 40.738 37.476 38.8195 37.2275 36.5465C36.9135 33.676 33.7315 31.9555 31.3945 30.8565C29.876 30.142 27.545 30.9555 27.7145 32.9685C27.922 35.4355 29.2705 37.2525 31.4895 38.378C33.397 39.3455 35.652 38.9855 36.442 36.8035C37.882 32.826 34.9165 28.6355 31.1575 27.4885C30.724 29.061 30.2905 30.633 29.857 32.2055C31.54 32.6335 32.5725 33.9595 33.647 35.2395C35.2905 37.1975 38.299 35.077 37.735 32.86C37.1385 30.516 35.7185 28.6705 33.599 27.5035C32.776 28.9115 31.953 30.3195 31.13 31.727C32.6505 32.498 37.32 36.963 33.1195 37.067C30.8655 37.123 29.406 32.8285 28.5935 31.091C27.2615 28.2415 23.0435 30.7225 24.37 33.56C25.5105 36 26.897 39.327 29.2015 40.898C31.4175 42.4085 34.8865 42.3 37.1155 40.849C42.9025 37.081 38.1515 29.812 33.599 27.5035C30.808 26.088 28.354 30.1985 31.13 31.727C32.185 32.308 32.724 33.004 33.018 34.1605C34.3805 33.3675 35.743 32.574 37.106 31.781C35.4625 29.823 33.698 28.1345 31.1575 27.4885C28.1 26.711 26.8475 31.287 29.857 32.2055C30.806 32.495 32.4475 33.927 31.8285 35.156C32.3155 34.7815 32.803 34.4065 33.29 34.032C33.407 33.5695 33.179 33.2155 32.6055 32.9685C31.379 33.6725 30.152 34.3765 28.9255 35.0805C29.8605 35.5205 30.7675 36.2865 31.707 36.6555C32.355 37.4155 32.5265 37.399 32.2215 36.6055C31.9975 36.6935 31.7845 36.6885 31.5815 36.591C30.3165 35.2845 29.953 33.239 29.7875 31.424C28.2685 31.8355 26.749 32.247 25.23 32.6585C26.063 34.434 26.608 36.257 26.991 38.177C28.5635 37.7435 30.1355 37.31 31.708 36.8765C31.0445 34.579 29.7515 31.1685 30.264 28.77C30.9205 25.6995 26.206 24.3875 25.547 27.4695Z" fill="#F2B71F"/>
<path d="M39.5165 16.65C39.5165 16.65 39.453 16.6195 39.329 16.5595C39.206 16.4955 39.02 16.408 38.762 16.3215C38.2525 16.1475 37.4455 15.95 36.391 16.0475C35.344 16.1345 34.0545 16.4955 32.7625 17.3215C32.441 17.527 32.1165 17.7625 31.804 18.0235C31.5135 18.274 31.214 18.533 30.9045 18.7995C30.6655 19.0035 30.425 19.2 30.1695 19.367C30.042 19.45 29.912 19.5275 29.776 19.591C29.7105 19.624 29.6365 19.654 29.574 19.6775L29.672 19.4345C29.8035 19.1095 29.929 18.791 30.045 18.4795C30.1055 18.311 30.1665 18.14 30.2285 17.9675C30.3115 17.7165 30.394 17.462 30.471 17.2015C30.78 16.1635 31.0285 15.0275 31.0505 13.817C31.063 13.2135 31.021 12.5985 30.937 11.984C30.858 11.3345 30.621 10.678 30.2625 10.097C29.5385 8.91847 28.3645 8.08947 27.126 7.47997C26.515 7.17947 25.819 6.88997 25.0815 6.76797C24.347 6.62947 23.58 6.63047 22.825 6.74047C22.071 6.85897 21.329 7.08747 20.6275 7.41497C20.449 7.49447 20.282 7.58397 20.105 7.67747C19.926 7.78247 19.7455 7.88747 19.5795 8.01547C19.2435 8.26347 18.9325 8.55397 18.673 8.88297C18.1415 9.53497 17.7855 10.3 17.5415 11.083C17.308 11.8775 17.1685 12.663 17.1325 13.515C17.103 14.359 17.203 15.176 17.2915 15.959L17.3535 16.542L17.366 16.669L17.368 16.706L17.37 16.7635C17.3665 16.811 17.3765 16.8905 17.351 16.8985L17.273 16.8395L17.2365 16.813L17.2185 16.801C17.203 16.7915 17.238 16.8105 17.1605 16.7665C16.7305 16.5125 16.271 16.2965 15.8 16.096C14.8515 15.7095 13.8065 15.461 12.722 15.4385C11.6385 15.432 10.5325 15.673 9.53699 16.1415C8.54749 16.6095 7.63999 17.308 6.91199 18.148C5.46999 19.846 4.67499 22.11 4.82549 24.4165C4.91349 25.571 5.21549 26.699 5.80199 27.756C6.37699 28.819 7.36599 29.6895 8.47549 30.194C9.43299 30.632 10.4525 30.815 11.4345 30.8515L12.169 30.855L12.385 30.842L12.3905 30.841L12.401 30.8375C12.404 30.8375 12.401 30.8425 12.398 30.849L11.8945 31.446C11.683 31.7005 11.4765 31.968 11.277 32.2425C10.468 33.3355 9.87199 34.6955 9.74899 36.0965C9.62349 37.5015 9.95199 38.911 10.602 40.1005C11.2555 41.2925 12.2125 42.2735 13.324 42.9745C14.437 43.676 15.7305 44.069 17.0255 44.103C18.321 44.124 19.602 43.7685 20.6615 43.1285C21.742 42.5075 22.6025 41.605 23.254 40.642C23.5815 40.158 23.861 39.6545 24.102 39.1425C24.1455 39.038 24.196 38.9015 24.2375 38.762C24.2795 38.8025 24.3285 38.9145 24.38 38.9945L24.4765 39.156C24.576 39.3285 24.6795 39.499 24.7855 39.6685C25.213 40.3425 25.699 40.991 26.2995 41.534C27.489 42.6235 28.9645 43.2615 30.428 43.4805C31.8935 43.6945 33.367 43.533 34.639 42.988C35.92 42.4625 36.9725 41.5765 37.6845 40.524C38.4085 39.4715 38.6965 38.204 38.6035 37.068C38.523 35.9245 38.149 34.8985 37.6785 34.0205C37.2035 33.14 36.6335 32.4 36.0745 31.7475C35.9325 31.5865 35.793 31.4285 35.656 31.273C35.5425 31.1515 35.4315 31.032 35.3225 30.915C35.0925 30.674 34.8715 30.443 34.66 30.2215C35.3955 30.204 36.0865 30.178 36.844 30.0945C37.557 30.014 38.1515 29.8865 38.619 29.746C39.087 29.6055 39.4255 29.451 39.6505 29.346C39.87 29.2305 39.9825 29.1715 39.9825 29.1715C39.9825 29.1715 39.8675 29.225 39.6425 29.329C39.413 29.4225 39.0695 29.5595 38.5995 29.677C38.1305 29.7945 37.5375 29.8935 36.83 29.9415C36.168 29.991 35.207 29.989 34.074 29.9665C34.3485 30.2785 34.6355 30.6045 34.9345 30.944C35.088 31.1225 35.245 31.305 35.4045 31.491C35.533 31.6495 35.664 31.8105 35.7975 31.975C36.3205 32.638 36.8445 33.38 37.263 34.2335C37.6775 35.0825 37.9875 36.06 38.022 37.098C38.0655 38.134 37.777 39.213 37.1075 40.1245C36.4485 41.0335 35.477 41.799 34.332 42.224C33.1935 42.672 31.8755 42.7755 30.5825 42.549C29.29 42.319 28.0155 41.7155 27.0285 40.7625C26.5325 40.293 26.1145 39.7105 25.7375 39.0825C25.6435 38.9245 25.5515 38.764 25.462 38.6L25.2395 38.1845L25.007 37.7315C24.7 37.1265 24.3865 36.464 24.0785 35.8745C23.7515 36.755 23.424 37.7705 23.0135 38.617C22.7855 39.0745 22.5265 39.5175 22.231 39.935C21.6395 40.768 20.9035 41.5025 20.0065 41.994C19.12 42.507 18.097 42.7635 17.064 42.7325C16.0315 42.686 14.991 42.358 14.088 41.7705C13.1875 41.1845 12.413 40.367 11.8995 39.402C11.389 38.4365 11.1495 37.3315 11.2555 36.24C11.3705 35.142 11.818 34.1005 12.527 33.1495C12.704 32.9095 12.8895 32.6715 13.089 32.4345L13.391 32.078L13.8365 31.5665C14.7055 30.5915 15.404 29.6615 16.18 28.7075C15.2165 28.868 14.249 29.029 13.2785 29.191C13.0485 29.2145 12.8035 29.2545 12.5895 29.26L12.1265 29.2865L11.498 29.282C10.6645 29.25 9.84649 29.092 9.12899 28.762C8.29849 28.375 7.60349 27.777 7.16499 26.9735C6.72099 26.183 6.45399 25.234 6.38299 24.31C6.30899 23.376 6.45299 22.4305 6.73399 21.5425C7.03049 20.658 7.48749 19.835 8.06999 19.1335C8.66549 18.44 9.37449 17.8805 10.1805 17.4855C10.984 17.099 11.8465 16.902 12.715 16.8925C13.5845 16.901 14.4535 17.0875 15.278 17.409C15.688 17.577 16.0935 17.7585 16.4805 17.9795L16.7305 18.1195C16.8265 18.1795 16.9215 18.2355 17.0175 18.3015L17.592 18.684C17.9665 18.938 18.34 19.1915 18.712 19.444C18.7325 19.3165 18.7315 19.111 18.739 18.938L18.755 18.4145C18.7605 18.0665 18.7815 17.7345 18.7585 17.3645C18.7535 17.1815 18.743 17.0035 18.725 16.832L18.702 16.5715L18.6835 16.401L18.6085 15.799C18.5035 15.009 18.402 14.261 18.414 13.548C18.459 12.1195 18.804 10.647 19.6015 9.61997C19.7965 9.35897 20.0275 9.13647 20.277 8.94247C20.3995 8.84147 20.535 8.76047 20.6685 8.67647C20.8125 8.59647 20.9645 8.50947 21.1165 8.43797C21.7235 8.13647 22.3595 7.92447 23.001 7.80647C23.6425 7.69747 24.29 7.67897 24.912 7.77947C25.539 7.86697 26.117 8.08697 26.7115 8.35697C27.871 8.88547 28.9165 9.59997 29.5405 10.5565C29.8525 11.032 30.0625 11.5525 30.1475 12.102C30.2455 12.6825 30.3025 13.2535 30.3095 13.8145C30.3265 14.936 30.1315 16.014 29.867 17.0325C29.801 17.2875 29.7295 17.5385 29.657 17.7865C29.609 17.941 29.5615 18.095 29.514 18.248C29.458 18.416 29.4025 18.583 29.347 18.7495C29.1275 19.4065 28.8955 20.0475 28.686 20.6335C28.7065 20.6825 28.725 20.733 28.7425 20.7845C28.867 20.7255 29.007 20.6585 29.1255 20.594C29.374 20.465 29.598 20.3305 29.8175 20.1915C30.2525 19.92 30.6865 19.563 31.0865 19.192C31.4155 18.885 31.734 18.587 32.043 18.2985C32.3385 18.0315 32.6365 17.796 32.9395 17.584C34.152 16.7355 35.3905 16.3285 36.4085 16.1975C37.434 16.056 38.237 16.2115 38.751 16.3595C39.011 16.433 39.201 16.511 39.326 16.568C39.452 16.6225 39.5165 16.65 39.5165 16.65Z" fill="black"/>
<path d="M32.846 22.099C32.1235 21.9595 31.3425 22.0885 30.63 22.231C29.9935 22.3585 29.375 22.56 28.775 22.8065C27.6845 23.2545 26.661 23.816 25.6575 24.4215C25.6235 24.424 25.59 24.427 25.556 24.4295C25.803 23.2135 26.184 22.0275 26.321 20.788C26.4635 19.499 26.335 17.731 25.32 16.7845C24.6175 16.1295 23.548 16.196 22.901 16.884C22.342 17.478 22.24 18.336 22.156 19.11C22.0065 20.491 22.202 21.9315 22.7 23.227C22.7985 23.4835 22.97 23.7135 23.183 23.88C23.173 23.9295 23.164 23.98 23.1545 24.0295C23.098 23.993 23.043 23.955 22.986 23.9195C22.4155 23.5705 21.818 23.279 21.202 23.02C19.9725 22.503 18.554 22.0525 17.207 22.0555C16.495 22.057 15.76 22.272 15.263 22.807C14.603 23.5165 14.551 24.6015 15.2115 25.3285C15.689 25.854 16.426 26.1085 17.0745 26.348C17.68 26.5715 18.3055 26.738 18.939 26.8585C19.8035 27.0235 20.6765 27.1105 21.5525 27.1505C20.4725 28.173 19.548 29.356 18.8465 30.6735C18.455 31.409 18.046 32.2295 18.492 33.045C18.75 33.517 19.2385 33.8355 19.7795 33.852C20.2005 33.865 20.5765 33.6915 20.93 33.4805C21.9945 32.845 22.819 31.928 23.547 30.9395C23.9985 30.3265 24.4005 29.6805 24.812 29.041C24.9545 29.1645 25.0935 29.291 25.2345 29.416C25.268 29.4995 25.3015 29.583 25.3345 29.6665C25.4595 29.98 25.588 30.2925 25.7235 30.602C25.9325 31.0785 26.18 31.538 26.465 31.974C26.7865 32.4655 27.1425 32.9885 27.5735 33.391C28.136 33.9165 28.8765 34.2105 29.642 33.987C30.521 33.731 31.061 32.852 30.86 31.9555C30.778 31.5895 30.557 31.272 30.302 30.98C29.7195 29.832 28.9085 28.779 27.948 27.928C27.5605 27.5845 27.147 27.2635 26.7145 26.974C26.6765 26.9145 26.6315 26.8565 26.5915 26.7975C28.7065 26.657 30.83 26.5235 32.7705 25.58C33.4945 25.228 34.1755 24.762 34.2905 23.904C34.412 23.001 33.6955 22.263 32.846 22.099ZM32.121 23.1475C32.1255 23.145 32.128 23.1415 32.1325 23.139C32.1895 23.104 32.1835 23.108 32.121 23.1475Z" fill="#EB5D46"/>
</svg>
