<svg width="49" height="49" viewBox="0 0 49 49" fill="none" xmlns="http://www.w3.org/2000/svg">
<path d="M10.2061 42.051C19.9361 42.254 29.1661 41.74 38.5431 41.349C39.9861 41.289 41.1921 40.208 41.3961 38.777C42.7211 29.487 41.8321 22.595 41.4431 14.033C41.4291 13.716 41.3911 11.354 41.3011 9.31101C41.2271 7.63901 39.7921 6.35201 38.1211 6.45801C30.8041 6.92401 19.1301 7.27901 10.7291 7.11901C9.71106 7.10001 8.59706 7.11301 7.81506 7.76501C6.93106 8.50301 6.72806 9.78201 6.71206 10.933C6.55806 22.654 6.71706 27.222 6.55806 38.8C6.55806 38.8 6.40006 41.971 10.2061 42.051Z" fill="#FEBF10"/>
<path d="M41.4 38.78C41.19 40.21 39.99 41.29 38.54 41.35L33.53 41.56L26 35.25L32.56 23.02L41.79 20.34C42.14 26.28 42.38 31.87 41.4 38.78Z" fill="#FEBF10"/>
<path opacity="0.6" d="M11.338 35.7821C12.549 36.0481 13.542 35.4461 14.492 34.7641C15.704 33.8931 16.797 33.1511 18.316 33.8271C19.632 34.4131 20.721 35.3701 22.086 35.8721C23.469 36.3811 25.007 36.4891 26.312 35.7161C26.865 35.3881 26.363 34.5241 25.807 34.8531C22.959 36.5391 20.494 33.2931 17.952 32.6421C16.698 32.3211 15.595 32.7711 14.576 33.4781C13.727 34.0671 12.729 35.0661 11.603 34.8181C10.977 34.6801 10.709 35.6441 11.338 35.7821Z" fill="#373837"/>
<path opacity="0.6" d="M13.112 29.003C18.045 28.84 22.978 28.678 27.912 28.515C28.554 28.494 28.557 27.494 27.912 27.515C22.979 27.678 18.046 27.84 13.112 28.003C12.47 28.024 12.467 29.024 13.112 29.003Z" fill="#373837"/>
<path opacity="0.6" d="M13 22.75C17.708 22.75 22.415 22.75 27.123 22.75C28.249 22.75 29.374 22.75 30.5 22.75C31.143 22.75 31.145 21.75 30.5 21.75C26.66 21.75 22.82 21.75 18.98 21.75C16.987 21.75 14.993 21.75 13 21.75C12.357 21.75 12.355 22.75 13 22.75Z" fill="#373837"/>
<path opacity="0.6" d="M13 16.75C19.331 16.746 25.673 16.42 32 16.75C32.643 16.784 32.641 15.783 32 15.75C25.673 15.42 19.331 15.746 13 15.75C12.357 15.75 12.355 16.75 13 16.75Z" fill="#373837"/>
<path d="M41.708 19.161C39.708 23.161 38.523 25.099 35.523 29.099C34.403 30.589 31.73 34.63 29.87 34.8C29.34 34.85 28.76 34.78 28.3 34.52L27 36.25L26 35.25C26.44 34.53 26.87 33.68 27.4 32.78C27.31 30.65 28.04 27.16 29 25.25C31 21.25 35 14.25 35 14.25C37.59 16.31 38.708 16.161 41.708 19.161Z" fill="#373837"/>
<path d="M40.915 7.79505L39.35 7.05005C38.65 7.88005 37.95 8.82005 37 10.25C37 12.25 37 12.25 37 13.25C38.09 14.34 39.89 15.57 41.57 16.55L40.915 7.79505Z" fill="#373837"/>
<path d="M41.17 18.697C40.507 20.027 39.9 21.388 39.206 22.703C38.501 24.038 37.641 25.277 36.747 26.491C35.212 28.576 33.759 30.753 31.989 32.65C31.076 33.629 30.002 34.813 28.552 34.089C28.289 33.958 28.04 34.04 27.868 34.268C27.435 34.845 27.001 35.421 26.568 35.998C26.83 35.964 27.092 35.931 27.353 35.897C27.02 35.564 26.686 35.23 26.353 34.897C26.379 35.099 26.405 35.301 26.431 35.503C26.681 35.088 26.916 34.664 27.15 34.239C27.39 33.804 27.836 33.275 27.899 32.78C27.945 32.424 27.893 32.034 27.916 31.672C27.947 31.176 28.003 30.682 28.08 30.191C28.354 28.438 28.818 26.709 29.622 25.123C31.074 22.259 32.642 19.451 34.215 16.652C34.618 15.934 35.023 15.217 35.431 14.503C35.169 14.537 34.907 14.57 34.646 14.604C36.804 16.318 39.039 17.881 41.349 19.382C41.89 19.734 42.392 18.868 41.854 18.519C39.615 17.065 37.444 15.559 35.353 13.898C35.108 13.703 34.742 13.694 34.568 13.999C33.48 15.904 32.41 17.819 31.356 19.742C29.726 22.714 27.965 25.629 27.285 28.989C27.09 29.954 26.946 30.939 26.904 31.924C26.895 32.134 26.943 32.43 26.895 32.634C26.837 32.878 26.625 33.126 26.504 33.343C26.195 33.897 25.895 34.455 25.568 34.999C25.454 35.189 25.491 35.45 25.646 35.605C25.979 35.938 26.313 36.272 26.646 36.605C26.895 36.854 27.241 36.757 27.431 36.504C27.864 35.927 28.298 35.351 28.731 34.774C28.503 34.834 28.275 34.894 28.047 34.953C29.378 35.617 30.546 35.293 31.619 34.397C32.727 33.473 33.644 32.31 34.525 31.175C35.338 30.127 36.105 29.046 36.886 27.974C37.837 26.67 38.821 25.39 39.635 23.993C40.533 22.451 41.238 20.798 42.034 19.203C42.32 18.628 41.458 18.12 41.17 18.697Z" fill="black"/>
<path d="M38.996 6.69601C38.249 7.58501 37.565 8.52301 36.913 9.48401C36.686 9.81801 36.509 10.026 36.5 10.432C36.493 10.723 36.5 11.016 36.5 11.307C36.5 11.668 36.5 12.028 36.5 12.389C36.5 12.685 36.454 13.027 36.509 13.317C36.601 13.802 37.371 14.273 37.735 14.564C38.863 15.464 40.074 16.254 41.317 16.983C41.873 17.309 42.377 16.445 41.822 16.12C40.245 15.195 38.661 14.187 37.353 12.898C37.402 13.016 37.451 13.134 37.499 13.252C37.499 12.423 37.499 11.593 37.499 10.764C37.499 10.076 38.139 9.45201 38.534 8.90601C38.906 8.39201 39.295 7.89201 39.702 7.40601C40.115 6.91401 39.411 6.20301 38.996 6.69601Z" fill="black"/>
<path d="M40.918 38.6469C40.735 39.6849 40.047 40.5319 38.999 40.7829C38.62 40.8739 38.213 40.8629 37.825 40.8799C36.562 40.9329 35.299 40.9859 34.036 41.0389C29.335 41.2359 24.634 41.4469 19.929 41.5399C17.105 41.5949 14.28 41.6119 11.456 41.5719C9.92296 41.5499 8.00596 41.6039 7.28796 39.9439C6.85096 38.9339 7.07596 37.6559 7.08796 36.5509C7.11396 34.2259 7.12896 31.9019 7.13496 29.5769C7.14496 25.4769 7.12896 21.3769 7.15096 17.2769C7.15796 16.0339 7.16696 14.7919 7.17896 13.5489C7.19096 12.3099 7.08096 10.9949 7.31196 9.77194C7.54696 8.52894 8.28096 7.75694 9.56596 7.64194C10.617 7.54794 11.697 7.63794 12.751 7.64794C17.432 7.69094 22.114 7.60894 26.793 7.46694C29.026 7.39894 31.258 7.31494 33.489 7.20994C34.52 7.16194 35.552 7.10894 36.582 7.05094C37.501 6.99894 38.532 6.78294 39.393 7.19894C40.423 7.69594 40.773 8.66094 40.817 9.73594C40.862 10.8479 40.892 11.9599 40.917 13.0719C40.967 15.2689 41.118 17.4639 41.249 19.6579C41.543 24.6049 41.764 29.5539 41.372 34.5029C41.263 35.8889 41.111 37.2709 40.918 38.6469C40.83 39.2759 41.793 39.5479 41.882 38.9129C42.634 33.5469 42.7 28.1679 42.425 22.7639C42.285 20.0129 42.095 17.2659 41.963 14.5149C41.922 13.6569 41.914 12.7979 41.89 11.9399C41.859 10.7969 41.998 9.44994 41.63 8.35294C41.331 7.46194 40.677 6.70594 39.827 6.29994C38.864 5.83994 37.861 5.97794 36.834 6.03694C34.633 6.16294 32.431 6.26394 30.229 6.34794C25.179 6.54194 20.124 6.65894 15.07 6.65794C13.926 6.65794 12.781 6.65094 11.637 6.63394C10.525 6.61794 9.32396 6.49594 8.26896 6.92494C5.87396 7.89994 6.20696 10.9999 6.18496 13.0909C6.13696 17.7259 6.14096 22.3609 6.13896 26.9959C6.13796 29.2769 6.13196 31.5579 6.11396 33.8379C6.10296 35.2089 6.08896 36.5799 6.07096 37.9509C6.06496 38.4289 6.03496 38.8979 6.10396 39.3719C6.27596 40.5429 6.97896 41.5699 8.05596 42.0859C9.04796 42.5609 10.13 42.5519 11.206 42.5679C12.689 42.5909 14.171 42.5979 15.654 42.5919C21.576 42.5669 27.493 42.3229 33.409 42.0659C34.507 42.0179 35.606 41.9739 36.704 41.9279C37.932 41.8769 39.298 41.9829 40.364 41.2639C41.175 40.7179 41.712 39.8739 41.881 38.9139C41.993 38.2839 41.029 38.0129 40.918 38.6469Z" fill="black"/>
</svg>
